# xmcd
#
# Track frame offsets: 
#        150
#        25117
#        40585
#        55632
#        73825
#        89881
#        106766
#        129369
#        140771
#        159488
#        179823
#        190506
#
# Disc length: 2689 seconds
#
# Revision: 0
# Processed by: cddbd v1.5.2PL0 Copyright (c) Steve Scherf et al.
# Submitted via: ExactAudioCopy v0.95b4
#
DISCID=a30a7f0c
DTITLE=Bachmann Blues Band - Girl on TV
DYEAR=2007
DGENRE=Blues
TTITLE0=Girl on TV
TTITLE1=Long long time
TTITLE2=Train hunter
TTITLE3=Come Along with me
TTITLE4=on the beach
TTITLE5=You better come down
TTITLE6=Jimis song
TTITLE7=Double shuffle
TTITLE8=Nothing around but blues
TTITLE9=The last run - Wired for sound
TTITLE10=Swingers choice
TTITLE11=Lamentation shuffle
EXTD=
EXTT0=
EXTT1=
EXTT2=
EXTT3=
EXTT4=
EXTT5=
EXTT6=
EXTT7=
EXTT8=
EXTT9=
EXTT10=
EXTT11=
PLAYORDER=
